<?xml version="1.0" encoding="utf-8"?>
<!-- Generator: Adobe Illustrator 16.0.0, SVG Export Plug-In . SVG Version: 6.00 Build 0)  -->
<!DOCTYPE svg PUBLIC "-//W3C//DTD SVG 1.1//EN" "http://www.w3.org/Graphics/SVG/1.1/DTD/svg11.dtd">
<svg version="1.1" id="Layer_1" xmlns="http://www.w3.org/2000/svg" xmlns:xlink="http://www.w3.org/1999/xlink" x="0px" y="0px"
	 width="80px" height="30px" viewBox="0 0 80 30" enable-background="new 0 0 80 30" xml:space="preserve">
<g display="none" opacity="0.1">
	<path display="inline" fill="none" stroke="#010101" stroke-width="2.3124" stroke-miterlimit="10" d="M50.938,15
		c0,6.042-4.896,10.939-10.938,10.939c-4.773,0-8.834-3.061-10.327-7.323c-0.396-1.134-0.611-2.349-0.611-3.616
		c0-6.041,4.897-10.938,10.938-10.938c2.006,0,3.887,0.54,5.501,1.483C48.755,7.439,50.938,10.964,50.938,15z"/>
	
		<circle display="inline" fill="none" stroke="#010101" stroke-width="2.3124" stroke-miterlimit="10" cx="38.378" cy="18.41" r="6.955"/>
	
		<circle display="inline" fill="none" stroke="#010101" stroke-width="2.3124" stroke-miterlimit="10" cx="44.941" cy="9.949" r="3.701"/>
	
		<circle display="inline" fill="none" stroke="#010101" stroke-width="2.3123" stroke-miterlimit="10" cx="36.3" cy="8.872" r="2.63"/>
</g>
<path display="none" d="M45.385,17.449l8.534,11.127h-8.786L38.47,18.133h-0.072v10.443H31.34V1.424h10.553
	c2.83,0,5.111,0.697,6.84,2.089c1.729,1.393,2.593,3.481,2.593,6.266c0,1.945-0.521,3.625-1.566,5.042
	C48.715,16.236,47.257,17.113,45.385,17.449z M38.398,6.826v6.77h0.684c3.264,0,4.896-1.128,4.896-3.385s-1.633-3.385-4.896-3.385
	H38.398z"/>
<path display="none" fill="#1E90FF" d="M56.934,28.438V1.562h10.692c3.019,0,5.399,0.731,7.146,2.191
	c1.748,1.463,2.621,3.68,2.621,6.649c0,6.083-3.172,9.125-9.517,9.125H63.92v8.91H56.934L56.934,28.438z M63.92,7.194v6.701h1.176
	c0.666,0,1.172-0.005,1.516-0.018c0.344-0.011,0.783-0.077,1.318-0.196c0.533-0.119,0.934-0.285,1.193-0.499
	c0.262-0.215,0.493-0.535,0.695-0.963c0.201-0.427,0.303-0.962,0.303-1.604c0-0.664-0.094-1.218-0.285-1.657
	c-0.189-0.44-0.416-0.78-0.675-1.017C68.896,7.705,68.514,7.533,68,7.425c-0.512-0.106-0.95-0.172-1.316-0.196
	c-0.369-0.024-0.897-0.036-1.588-0.036L63.92,7.194L63.92,7.194z"/>
<g>
	<g>
		<g>
			<path d="M11.1,11.335c-1.92-0.37-3.775,0.884-4.146,2.802c-0.37,1.921,0.883,3.776,2.804,4.147
				c1.919,0.368,3.776-0.884,4.146-2.806C14.274,13.562,13.019,11.706,11.1,11.335z M8.253,14.882
				c-0.605-0.116-1.003-0.704-0.886-1.311c0.117-0.606,0.705-1.003,1.31-0.886c0.608,0.117,1.004,0.703,0.886,1.31
				C9.446,14.603,8.86,14.998,8.253,14.882z"/>
		</g>
		<g>
			<path fill="none" stroke="#1E90FF" stroke-width="1.6792" stroke-miterlimit="10" d="M10.429,10.76
				c3.156,0,5.925,1.637,7.519,4.103c0.484-0.749,0.856-1.573,1.101-2.452c-1.05-3.778-4.506-6.554-8.619-6.554
				c-4.112,0-7.569,2.775-8.62,6.554c0.245,0.879,0.618,1.704,1.101,2.45C4.505,12.396,7.273,10.76,10.429,10.76z"/>
			<path fill="none" stroke="#1E90FF" stroke-width="1.6792" stroke-miterlimit="10" d="M10.429,18.964
				c-3.156,0-5.924-1.637-7.519-4.104c-0.474,0.734-0.843,1.541-1.088,2.401c1.067,3.754,4.512,6.503,8.606,6.503
				c4.095,0,7.538-2.75,8.607-6.501c-0.247-0.862-0.614-1.67-1.088-2.403C16.352,17.327,13.585,18.964,10.429,18.964z"/>
			<path fill="none" stroke="#1E90FF" stroke-width="1.6792" stroke-miterlimit="10" d="M10.429,10.76
				c-3.156,0-5.924,1.637-7.519,4.101c1.595,2.468,4.362,4.104,7.519,4.104s5.924-1.637,7.519-4.103
				C16.353,12.396,13.585,10.76,10.429,10.76z"/>
		</g>
	</g>
	<path d="M33.953,16.748l6.091,7.94h-6.271l-4.754-7.452h-0.051v7.452h-5.037V5.312h7.53c2.021,0,3.649,0.497,4.882,1.491
		c1.233,0.993,1.851,2.484,1.851,4.471c0,1.388-0.373,2.588-1.118,3.598C36.33,15.883,35.29,16.508,33.953,16.748z M28.968,9.167
		v4.831h0.488c2.33,0,3.495-0.806,3.495-2.416s-1.165-2.415-3.495-2.415H28.968z"/>
	<path fill="#1E90FF" d="M42.907,24.688V5.312h7.145c2.706,0,5.023,0.938,6.951,2.814c1.927,1.876,2.891,4.167,2.891,6.874
		s-0.964,4.999-2.891,6.875c-1.928,1.876-4.245,2.813-6.951,2.813H42.907z M47.944,9.578v10.845h1.131
		c1.609,0,2.942-0.454,3.996-1.362s1.58-2.262,1.58-4.061c0-1.696-0.506-3.023-1.517-3.983c-1.011-0.959-2.347-1.438-4.009-1.438
		H47.944z"/>
	<path d="M63.438,24.688V5.312h7.71c2.175,0,3.893,0.527,5.152,1.581c1.259,1.054,1.889,2.651,1.889,4.792
		c0,4.387-2.287,6.579-6.861,6.579h-2.853v6.425H63.438z M68.476,9.372v4.831h0.848c0.479,0,0.844-0.004,1.093-0.013
		c0.248-0.008,0.565-0.056,0.95-0.142c0.386-0.085,0.673-0.205,0.861-0.359s0.355-0.386,0.501-0.693
		c0.146-0.309,0.219-0.694,0.219-1.157c0-0.479-0.069-0.877-0.206-1.194c-0.138-0.317-0.3-0.562-0.488-0.732
		s-0.467-0.296-0.835-0.373c-0.369-0.077-0.686-0.124-0.951-0.142c-0.266-0.017-0.646-0.025-1.144-0.025H68.476z"/>
</g>
<line display="none" fill="none" stroke="#008CFF" stroke-width="0.2" stroke-miterlimit="10" x1="77.544" y1="24.878" x2="1.196" y2="24.878"/>
<line display="none" fill="none" stroke="#008CFF" stroke-width="0.2" stroke-miterlimit="10" x1="78.174" y1="5.413" x2="1.826" y2="5.413"/>
</svg>
