<?xml version="1.0" encoding="utf-8"?>
<!-- Generator: Adobe Illustrator 16.0.0, SVG Export Plug-In . SVG Version: 6.00 Build 0)  -->
<!DOCTYPE svg PUBLIC "-//W3C//DTD SVG 1.1//EN" "http://www.w3.org/Graphics/SVG/1.1/DTD/svg11.dtd">
<svg version="1.1" id="Layer_1" xmlns="http://www.w3.org/2000/svg" xmlns:xlink="http://www.w3.org/1999/xlink" x="0px" y="0px"
	 width="80px" height="30px" viewBox="0 0 80 30" enable-background="new 0 0 80 30" xml:space="preserve">
<g display="none" opacity="0.1">
	<path display="inline" fill="none" stroke="#010101" stroke-width="2.3124" stroke-miterlimit="10" d="M50.938,15
		c0,6.042-4.896,10.939-10.938,10.939c-4.773,0-8.834-3.06-10.327-7.323c-0.396-1.134-0.611-2.349-0.611-3.616
		c0-6.041,4.897-10.938,10.938-10.938c2.006,0,3.886,0.54,5.501,1.483C48.755,7.439,50.938,10.964,50.938,15z"/>
	
		<circle display="inline" fill="none" stroke="#010101" stroke-width="2.3124" stroke-miterlimit="10" cx="38.378" cy="18.41" r="6.955"/>
	
		<circle display="inline" fill="none" stroke="#010101" stroke-width="2.3124" stroke-miterlimit="10" cx="44.941" cy="9.949" r="3.701"/>
	
		<circle display="inline" fill="none" stroke="#010101" stroke-width="2.3123" stroke-miterlimit="10" cx="36.3" cy="8.872" r="2.63"/>
</g>
<g>
	<g>
		<path fill="#010101" d="M16.117,10.469c-2.504-0.483-4.922,1.152-5.405,3.653c-0.483,2.503,1.151,4.923,3.655,5.407
			c2.502,0.481,4.923-1.153,5.405-3.659C20.255,13.372,18.619,10.952,16.117,10.469z M12.405,15.093
			c-0.789-0.152-1.308-0.917-1.155-1.708s0.919-1.308,1.708-1.155c0.792,0.153,1.309,0.916,1.155,1.707
			C13.961,14.729,13.197,15.245,12.405,15.093z"/>
	</g>
	<g>
		<path fill="none" stroke="#010101" stroke-width="2.1893" stroke-miterlimit="10" d="M15.242,9.719
			c4.115,0,7.725,2.133,9.803,5.349c0.632-0.977,1.116-2.051,1.436-3.197c-1.369-4.926-5.875-8.545-11.238-8.545
			c-5.361,0-9.868,3.619-11.238,8.545c0.319,1.146,0.805,2.222,1.436,3.195C7.519,11.852,11.128,9.719,15.242,9.719z"/>
		<path fill="none" stroke="#010101" stroke-width="2.1893" stroke-miterlimit="10" d="M15.242,20.415
			c-4.114,0-7.724-2.134-9.803-5.35c-0.618,0.958-1.099,2.01-1.418,3.13c1.391,4.895,5.882,8.479,11.221,8.479
			c5.339,0,9.828-3.585,11.222-8.476c-0.321-1.123-0.8-2.176-1.419-3.132C22.965,18.281,19.357,20.415,15.242,20.415z"/>
		<path fill="none" stroke="#010101" stroke-width="2.1893" stroke-miterlimit="10" d="M15.242,9.719
			c-4.114,0-7.724,2.133-9.803,5.347c2.079,3.216,5.688,5.35,9.803,5.35c4.115,0,7.724-2.134,9.803-5.348
			C22.966,11.852,19.357,9.719,15.242,9.719z"/>
	</g>
</g>
<path fill="#1E90FF" d="M45.385,17.449l8.534,11.127h-8.786L38.47,18.133h-0.072v10.443h-7.058V1.424h10.552
	c2.831,0,5.112,0.697,6.841,2.089c1.729,1.393,2.592,3.481,2.592,6.266c0,1.945-0.521,3.625-1.566,5.042
	C48.715,16.236,47.257,17.113,45.385,17.449z M38.398,6.826v6.77h0.684c3.264,0,4.897-1.128,4.897-3.385s-1.633-3.385-4.897-3.385
	H38.398z"/>
<path fill="none" stroke="#000000" stroke-width="1.9279" d="M57.582,27.586V2.413h10.015c2.827,0,5.058,0.685,6.693,2.053
	c1.637,1.37,2.454,3.446,2.454,6.228c0,5.697-2.97,8.548-8.912,8.548h-3.707v8.345H57.582z M64.125,7.688v6.276h1.102
	c0.623,0,1.097-0.005,1.419-0.017c0.322-0.011,0.734-0.072,1.234-0.184c0.501-0.111,0.875-0.267,1.119-0.467
	c0.245-0.201,0.462-0.501,0.651-0.902c0.188-0.4,0.283-0.901,0.283-1.502c0-0.622-0.088-1.141-0.267-1.552
	c-0.179-0.412-0.39-0.73-0.633-0.952c-0.247-0.223-0.607-0.384-1.087-0.484c-0.479-0.1-0.891-0.161-1.234-0.184
	c-0.346-0.022-0.841-0.033-1.486-0.033H64.125z"/>
</svg>
