<svg width="595" height="240" viewBox="0 0 595 240" fill="none" xmlns="http://www.w3.org/2000/svg">
<path d="M311.297 117.824H254.168C250.717 117.824 248.113 118.703 246.355 120.461C244.598 122.154 243.719 124.66 243.719 127.98V198H218.328V127.98C218.328 123.618 218.882 119.712 219.988 116.262C221.095 112.811 222.56 109.784 224.383 107.18C226.271 104.51 228.419 102.264 230.828 100.441C233.237 98.5534 235.743 97.0234 238.348 95.8516C241.017 94.6797 243.686 93.8333 246.355 93.3125C249.09 92.7266 251.629 92.4336 253.973 92.4336H311.297V117.824ZM584.539 162.355C584.539 166.717 583.986 170.656 582.879 174.172C581.772 177.622 580.307 180.682 578.484 183.352C576.661 185.956 574.546 188.202 572.137 190.09C569.728 191.913 567.189 193.41 564.52 194.582C561.915 195.754 559.279 196.633 556.609 197.219C553.94 197.74 551.401 198 548.992 198H503.191V172.609H548.992C552.378 172.609 554.917 171.73 556.609 169.973C558.302 168.215 559.148 165.676 559.148 162.355V128.176C559.148 124.66 558.27 122.056 556.512 120.363C554.819 118.671 552.312 117.824 548.992 117.824H503.387C499.936 117.824 497.332 118.703 495.574 120.461C493.816 122.154 492.938 124.66 492.938 127.98V231.008H467.547V127.98C467.547 123.618 468.1 119.712 469.207 116.262C470.314 112.811 471.779 109.784 473.602 107.18C475.49 104.51 477.638 102.264 480.047 100.441C482.456 98.5534 484.962 97.0234 487.566 95.8516C490.236 94.6797 492.905 93.8333 495.574 93.3125C498.309 92.7266 500.848 92.4336 503.191 92.4336H548.992C553.354 92.4336 557.26 92.987 560.711 94.0938C564.161 95.2005 567.189 96.6654 569.793 98.4883C572.462 100.311 574.708 102.427 576.531 104.836C578.419 107.245 579.949 109.784 581.121 112.453C582.293 115.057 583.139 117.694 583.66 120.363C584.246 123.033 584.539 125.572 584.539 127.98V162.355Z" fill="black"/>
<path d="M443.914 162.355C443.914 166.717 443.361 170.656 442.254 174.172C441.147 177.622 439.682 180.682 437.859 183.352C436.036 185.956 433.921 188.202 431.512 190.09C429.103 191.913 426.564 193.41 423.895 194.582C421.29 195.754 418.621 196.633 415.887 197.219C413.217 197.74 410.678 198 408.27 198H362.469C358.107 198 354.201 197.447 350.75 196.34C347.299 195.233 344.24 193.768 341.57 191.945C338.966 190.057 336.72 187.909 334.832 185.5C333.009 183.091 331.512 180.585 330.34 177.98C329.168 175.311 328.289 172.642 327.703 169.973C327.182 167.238 326.922 164.699 326.922 162.355V127.98C326.922 121.47 328.094 115.969 330.438 111.477C332.846 106.919 335.809 103.241 339.324 100.441C342.905 97.5768 346.779 95.526 350.945 94.2891C355.112 93.0521 358.953 92.4336 362.469 92.4336H408.27V117.824H362.664C359.279 117.824 356.707 118.703 354.949 120.461C353.191 122.154 352.312 124.66 352.312 127.98V162.16C352.312 165.611 353.159 168.215 354.852 169.973C356.609 171.73 359.148 172.609 362.469 172.609H408.27C411.72 172.609 414.292 171.73 415.984 169.973C417.677 168.215 418.523 165.676 418.523 162.355V47.8047H443.914V162.355Z" fill="#1E90FF"/>
<circle cx="91.5" cy="127.5" r="88" fill="#1E90FF" stroke="white" stroke-width="7"/>
<circle cx="91" cy="153" r="64" fill="black" stroke="white" stroke-width="10"/>
<path d="M91.5 217C115.463 217 135 197.81 135 174C135 150.19 115.463 131 91.5 131C67.5374 131 48 150.19 48 174C48 197.81 67.5374 217 91.5 217Z" fill="#1E90FF" stroke="white" stroke-width="10"/>
</svg>
