<?xml version="1.0" encoding="utf-8"?>
<!-- Generator: Adobe Illustrator 16.0.0, SVG Export Plug-In . SVG Version: 6.00 Build 0)  -->
<!DOCTYPE svg PUBLIC "-//W3C//DTD SVG 1.1//EN" "http://www.w3.org/Graphics/SVG/1.1/DTD/svg11.dtd">
<svg version="1.1" id="Layer_1" xmlns="http://www.w3.org/2000/svg" xmlns:xlink="http://www.w3.org/1999/xlink" x="0px" y="0px"
	 width="60px" height="60px" viewBox="0 0 60 60" enable-background="new 0 0 60 60" xml:space="preserve">
<g>
	<path fill="#010101" d="M12.021,20.918c0-1.586,1.049-2.45,2.382-2.45s2.379,0.864,2.379,2.45v2.021h0.071
		c0.612-2.199,1.805-4.471,4.364-4.471c1.66,0,2.885,1.08,2.885,2.561c0,1.943-1.301,2.63-2.598,2.63H20.57
		c-2.13,0-3.283,1.479-3.283,5.843v6.132c0,1.402-0.576,2.632-2.632,2.632c-2.055,0-2.633-1.229-2.633-2.632L12.021,20.918
		L12.021,20.918z"/>
	<path fill="none" stroke="#010101" stroke-width="1.7403" stroke-miterlimit="10" d="M29.339,20.955
		c0-1.622,0.76-2.486,2.383-2.486c1.55,0,2.378,0.864,2.378,2.486v0.832h0.075c0.864-2.238,2.993-3.318,5.552-3.318
		c4.399,0,8.256,3.208,8.256,10.024c0,5.049-2.559,9.772-8.11,9.772c-2.418,0-4.223-0.975-5.194-2.67h-0.071v7.036
		c0,1.724-1.049,2.626-2.634,2.626s-2.634-0.902-2.634-2.626L29.339,20.955L29.339,20.955z M38.536,22.578
		c-3.063,0-4.218,2.744-4.218,5.733c0,2.706,1.009,5.875,4.218,5.842c3.351,0,4.185-3.39,4.185-5.842
		C42.721,25.211,41.348,22.649,38.536,22.578z"/>
	<path fill="none" stroke="#010101" stroke-width="2.7927" stroke-miterlimit="10" d="M56.709,30
		c0,14.749-11.958,26.709-26.709,26.709C15.249,56.709,3.291,44.749,3.291,30C3.291,15.249,15.249,3.291,30,3.291
		C44.751,3.291,56.709,15.249,56.709,30z"/>
</g>
</svg>
